{
    "asset" : {
        "generator" : "Khronos glTF Blender I/O v0.9.36",
        "version" : "2.0"
    },
    "scene" : 0,
    "scenes" : [
        {
            "name" : "Scene",
            "nodes" : [
                21,
                22,
                23
            ]
        }
    ],
    "nodes" : [
        {
            "name" : "Head",
            "rotation" : [
                -0.1004302129149437,
                -1.4160872148017475e-14,
                -1.5343216216453072e-15,
                0.994944155216217
            ],
            "scale" : [
                1,
                1,
                0.9999999403953552
            ],
            "translation" : [
                0,
                0.4933167099952698,
                7.450580596923828e-08
            ]
        },
        {
            "children" : [
                0
            ],
            "name" : "Neck",
            "rotation" : [
                0.17143914103507996,
                1.174444292928456e-07,
                -2.043713998034491e-08,
                0.9851948022842407
            ],
            "translation" : [
                1.3230448807105989e-14,
                0.724040150642395,
                7.450580596923828e-08
            ]
        },
        {
            "name" : "Hand.L",
            "rotation" : [
                0.05877208709716797,
                0.025508787482976913,
                0.10896065831184387,
                0.9919793009757996
            ],
            "scale" : [
                0.9999999403953552,
                1,
                1
            ],
            "translation" : [
                6.984919309616089e-10,
                1.745405912399292,
                -3.725290298461914e-08
            ]
        },
        {
            "children" : [
                2
            ],
            "name" : "Forearm.L",
            "rotation" : [
                0.11329518258571625,
                -0.005171725992113352,
                -0.042875390499830246,
                0.9926223754882812
            ],
            "scale" : [
                0.9999998807907104,
                1,
                0.9999998807907104
            ],
            "translation" : [
                1.7413728414794605e-07,
                1.333598017692566,
                -5.8908348421482515e-08
            ]
        },
        {
            "children" : [
                3
            ],
            "name" : "UpperArm.L",
            "rotation" : [
                7.425573045338751e-09,
                -1.2378609426377807e-07,
                0.2011648714542389,
                0.9795573949813843
            ],
            "scale" : [
                0.9999999403953552,
                0.9999999403953552,
                1
            ],
            "translation" : [
                -9.735160233503848e-09,
                0.942828357219696,
                1.7001639207592234e-08
            ]
        },
        {
            "children" : [
                4
            ],
            "name" : "Collar.L",
            "rotation" : [
                -0.017630990594625473,
                0.023066557943820953,
                0.7941573858261108,
                0.607018232345581
            ],
            "scale" : [
                0.9999998807907104,
                1,
                1
            ],
            "translation" : [
                -0.2966643273830414,
                0.3768586218357086,
                -0.01861600950360298
            ]
        },
        {
            "name" : "Hand.R",
            "rotation" : [
                -0.019391413778066635,
                -0.01959933526813984,
                -0.1222725361585617,
                0.9921135306358337
            ],
            "scale" : [
                0.9999999403953552,
                0.9999998211860657,
                0.9999999403953552
            ],
            "translation" : [
                -1.4901161193847656e-07,
                1.745405912399292,
                -3.2782554626464844e-07
            ]
        },
        {
            "children" : [
                6
            ],
            "name" : "Forearm.R",
            "rotation" : [
                0.1210714653134346,
                -0.31577080488204956,
                0.003976859152317047,
                0.9410711526870728
            ],
            "scale" : [
                0.9999999403953552,
                1,
                0.9999998807907104
            ],
            "translation" : [
                -5.492798393902376e-08,
                1.3335975408554077,
                -1.7495875681561301e-07
            ]
        },
        {
            "children" : [
                7
            ],
            "name" : "UpperArm.R",
            "rotation" : [
                1.264602218498112e-07,
                -4.5700912210122624e-07,
                -0.20116503536701202,
                0.979557454586029
            ],
            "scale" : [
                1,
                0.9999999403953552,
                0.9999999403953552
            ],
            "translation" : [
                -1.6646333733660867e-07,
                0.942828357219696,
                -3.962328776196955e-08
            ]
        },
        {
            "children" : [
                8
            ],
            "name" : "Collar.R",
            "rotation" : [
                -0.01763071119785309,
                -0.023066053166985512,
                -0.7941573858261108,
                0.6070182919502258
            ],
            "scale" : [
                0.9999999403953552,
                1,
                0.9999999403953552
            ],
            "translation" : [
                0.2966642677783966,
                0.3768583834171295,
                -0.018616270273923874
            ]
        },
        {
            "children" : [
                1,
                5,
                9
            ],
            "name" : "Chest",
            "rotation" : [
                0.07054906338453293,
                -2.3782456537446706e-07,
                -4.451985689010816e-15,
                0.9975084066390991
            ],
            "translation" : [
                -2.1316282072803006e-14,
                1.214497447013855,
                0
            ]
        },
        {
            "children" : [
                10
            ],
            "name" : "Thorax",
            "rotation" : [
                -0.04155866429209709,
                1.1910628217037811e-07,
                -4.954178400851106e-09,
                0.9991360902786255
            ],
            "scale" : [
                1,
                0.9999999403953552,
                0.9999999403953552
            ],
            "translation" : [
                0,
                1.092633843421936,
                0
            ]
        },
        {
            "children" : [
                11
            ],
            "name" : "Stomach",
            "rotation" : [
                -0.7071068286895752,
                0,
                0,
                0.7071068286895752
            ],
            "translation" : [
                0,
                1.1260731220245361,
                -5.510833123167913e-09
            ]
        },
        {
            "name" : "Foot.L",
            "rotation" : [
                0.6281216740608215,
                0.13737399876117706,
                -0.05502283200621605,
                0.7639136910438538
            ],
            "scale" : [
                1,
                0.9999999403953552,
                1
            ],
            "translation" : [
                -2.446176949888468e-07,
                2.9288861751556396,
                -6.705522537231445e-08
            ]
        },
        {
            "children" : [
                13
            ],
            "name" : "Shin.L",
            "rotation" : [
                -0.017064062878489494,
                -0.003802395658567548,
                0.016613539308309555,
                0.9997091293334961
            ],
            "scale" : [
                0.9999999403953552,
                1,
                1
            ],
            "translation" : [
                1.0360963642597198e-07,
                2.4154434204101562,
                1.862645149230957e-08
            ]
        },
        {
            "children" : [
                14
            ],
            "name" : "Thigh.L",
            "rotation" : [
                -0.07317909598350525,
                0.005624803248792887,
                -0.09681793302297592,
                0.9925923347473145
            ],
            "scale" : [
                1,
                1,
                0.9999999403953552
            ],
            "translation" : [
                0.5459158420562744,
                0.9286947250366211,
                -0.015953099355101585
            ]
        },
        {
            "name" : "Foot.R",
            "rotation" : [
                0.6273669600486755,
                -0.1643352210521698,
                0.0630476251244545,
                0.7585707902908325
            ],
            "scale" : [
                1,
                0.9999999403953552,
                0.9999999403953552
            ],
            "translation" : [
                -7.450580596923828e-09,
                2.9288854598999023,
                1.4901161193847656e-07
            ]
        },
        {
            "children" : [
                16
            ],
            "name" : "Shin.R",
            "rotation" : [
                -0.016214177012443542,
                0.0021009931806474924,
                -0.017444046214222908,
                0.999714195728302
            ],
            "scale" : [
                0.9999999403953552,
                1,
                1
            ],
            "translation" : [
                4.842877388000488e-08,
                2.415443181991577,
                5.21540641784668e-08
            ]
        },
        {
            "children" : [
                17
            ],
            "name" : "Thigh.R",
            "rotation" : [
                -0.07565109431743622,
                0.019997132942080498,
                0.09489898383617401,
                0.9924069046974182
            ],
            "scale" : [
                1,
                1,
                1.0000001192092896
            ],
            "translation" : [
                -0.5459160804748535,
                0.9286946654319763,
                -0.01593821682035923
            ]
        },
        {
            "children" : [
                15,
                18
            ],
            "name" : "Root",
            "rotation" : [
                4.7875751079118345e-06,
                0.7172285318374634,
                0.6968380212783813,
                4.927669579046778e-06
            ],
            "scale" : [
                1,
                1,
                0.9999505281448364
            ],
            "translation" : [
                0,
                1.1260731220245361,
                -5.510833123167913e-09
            ]
        },
        {
            "mesh" : 0,
            "name" : "root",
            "rotation" : [
                -0.7071068286895752,
                0,
                0,
                0.7071068286895752
            ],
            "scale" : [
                0.06554383784532547,
                0.06554383784532547,
                0.06554383784532547
            ],
            "skin" : 0,
            "translation" : [
                0,
                1.1094441413879395,
                6.619007587432861
            ]
        },
        {
            "children" : [
                20,
                12,
                19
            ],
            "name" : "Armature",
            "rotation" : [
                0.7071067690849304,
                0,
                0,
                0.7071067690849304
            ],
            "scale" : [
                1.5256962776184082,
                1.5256962776184082,
                1.5256962776184082
            ],
            "translation" : [
                0,
                10.09859561920166,
                -1.6926743984222412
            ]
        },
        {
            "name" : "Lamp",
            "rotation" : [
                0.16907575726509094,
                0.7558803558349609,
                -0.27217137813568115,
                0.570947527885437
            ],
            "scale" : [
                19.504531860351562,
                19.50452995300293,
                19.504531860351562
            ],
            "translation" : [
                9.080435752868652,
                167.70443725585938,
                141.9247283935547
            ]
        },
        {
            "name" : "Camera",
            "rotation" : [
                0.6008511185646057,
                0.16430921852588654,
                -0.1351400464773178,
                0.7705307006835938
            ],
            "scale" : [
                19.50452995300293,
                19.50452995300293,
                19.50452995300293
            ],
            "translation" : [
                118.86186981201172,
                183.84149169921875,
                225.20037841796875
            ]
        }
    ],
    "materials" : [
        {
            "doubleSided" : true,
            "name" : "Material",
            "pbrMetallicRoughness" : {}
        }
    ],
    "meshes" : [
        {
            "name" : "Mesh",
            "primitives" : [
                {
                    "attributes" : {
                        "POSITION" : 0,
                        "NORMAL" : 1,
                        "TEXCOORD_0" : 2,
                        "JOINTS_0" : 3,
                        "WEIGHTS_0" : 4
                    },
                    "indices" : 5,
                    "material" : 0
                }
            ]
        }
    ],
    "skins" : [
        {
            "inverseBindMatrices" : 6,
            "joints" : [
                12,
                11,
                10,
                1,
                0,
                5,
                4,
                3,
                2,
                9,
                8,
                7,
                6,
                19,
                15,
                14,
                13,
                18,
                17,
                16
            ],
            "name" : "Armature"
        }
    ],
    "accessors" : [
        {
            "bufferView" : 0,
            "componentType" : 5126,
            "count" : 1138,
            "max" : [
                68.0752944946289,
                175.11314392089844,
                15.826519966125488
            ],
            "min" : [
                -68.0752944946289,
                -0.6171196103096008,
                -15.327452659606934
            ],
            "type" : "VEC3"
        },
        {
            "bufferView" : 1,
            "componentType" : 5126,
            "count" : 1138,
            "type" : "VEC3"
        },
        {
            "bufferView" : 2,
            "componentType" : 5126,
            "count" : 1138,
            "type" : "VEC2"
        },
        {
            "bufferView" : 3,
            "componentType" : 5123,
            "count" : 1138,
            "type" : "VEC4"
        },
        {
            "bufferView" : 4,
            "componentType" : 5126,
            "count" : 1138,
            "type" : "VEC4"
        },
        {
            "bufferView" : 5,
            "componentType" : 5123,
            "count" : 5124,
            "type" : "SCALAR"
        },
        {
            "bufferView" : 6,
            "componentType" : 5126,
            "count" : 20,
            "type" : "MAT4"
        }
    ],
    "bufferViews" : [
        {
            "buffer" : 0,
            "byteLength" : 13656,
            "byteOffset" : 0
        },
        {
            "buffer" : 0,
            "byteLength" : 13656,
            "byteOffset" : 13656
        },
        {
            "buffer" : 0,
            "byteLength" : 9104,
            "byteOffset" : 27312
        },
        {
            "buffer" : 0,
            "byteLength" : 9104,
            "byteOffset" : 36416
        },
        {
            "buffer" : 0,
            "byteLength" : 18208,
            "byteOffset" : 45520
        },
        {
            "buffer" : 0,
            "byteLength" : 10248,
            "byteOffset" : 63728
        },
        {
            "buffer" : 0,
            "byteLength" : 1280,
            "byteOffset" : 73976
        }
    ],
    "buffers" : [
        {
            "byteLength" : 75256,
            "uri" : "data:application/octet-stream;base64,"
        }
    ]
}
